<svg width="40.001678" height="39.013672" viewBox="0 0 40.0017 39.0137" fill="#2C2F34" xmlns="http://www.w3.org/2000/svg" xmlns:xlink="http://www.w3.org/1999/xlink">
	<desc>
			Created with Pixso.
	</desc>
	<defs/>
	<path id="Vector" d="M20 0C8.95 0 0 8.95 0 20C0 28.83 5.73 36.33 13.67 38.97C14.67 39.16 15.04 38.54 15.04 38.01C15.04 37.54 15.02 35.96 15.01 34.29C9.45 35.5 8.27 31.93 8.27 31.93C7.36 29.62 6.05 29 6.05 29C4.24 27.76 6.19 27.79 6.19 27.79C8.2 27.93 9.26 29.85 9.26 29.85C11.04 32.9 13.93 32.02 15.08 31.51C15.26 30.22 15.77 29.34 16.35 28.84C11.9 28.33 7.23 26.62 7.23 18.95C7.23 16.77 8.01 14.98 9.29 13.58C9.09 13.08 8.4 11.05 9.49 8.29C9.49 8.29 11.17 7.75 14.99 10.34C16.59 9.9 18.29 9.67 20 9.67C21.7 9.67 23.41 9.9 25.01 10.34C28.82 7.75 30.5 8.29 30.5 8.29C31.59 11.05 30.9 13.08 30.7 13.58C31.98 14.98 32.75 16.77 32.75 18.95C32.75 26.63 28.08 28.33 23.62 28.82C24.34 29.44 24.98 30.66 24.98 32.52C24.98 35.2 24.96 37.35 24.96 38.01C24.96 38.54 25.32 39.17 26.33 38.97C34.27 36.32 40 28.83 40 20C40 8.95 31.04 0 20 0Z"  fill-opacity="1.000000" fill-rule="evenodd"/>
</svg>
