<svg width="40.000000" height="40.000000" viewBox="0 0 40 40" fill="none" xmlns="http://www.w3.org/2000/svg" xmlns:xlink="http://www.w3.org/1999/xlink">
	<desc>
			Created with Pixso.
	</desc>
	<defs>
		<clipPath id="clip15_57">
			<rect id="envelope_3916631 1" rx="-0.500000" width="39.000000" height="39.000000" transform="translate(0.500000 0.500000)" fill="white" fill-opacity="0"/>
		</clipPath>
	</defs>
	<rect id="envelope_3916631 1" rx="-0.500000" width="39.000000" height="39.000000" transform="translate(0.500000 0.500000)" fill="#FFFFFF" fill-opacity="0"/>
	<g clip-path="url(#clip15_57)">
		<path id="Vector" d="M39.92 9.23L25.89 23.26C24.32 24.82 22.2 25.7 20 25.7C17.79 25.7 15.67 24.82 14.1 23.26L0.07 9.23C0.05 9.5 0 9.73 0 10L0 30C0 32.2 0.88 34.32 2.44 35.88C4 37.45 6.12 38.33 8.33 38.33L31.66 38.33C33.87 38.33 35.99 37.45 37.55 35.88C39.11 34.32 39.99 32.2 40 30L40 10C40 9.73 39.94 9.5 39.92 9.23Z" fill="#2C2F34" fill-opacity="1.000000" fill-rule="nonzero"/>
		<path id="Vector" d="M23.53 20.91L38.75 5.68C38.02 4.46 36.98 3.45 35.73 2.74C34.49 2.04 33.09 1.67 31.66 1.66L8.33 1.66C6.9 1.67 5.5 2.04 4.26 2.74C3.01 3.45 1.97 4.46 1.23 5.68L16.46 20.91C17.4 21.84 18.67 22.37 20 22.37C21.32 22.37 22.59 21.84 23.53 20.91Z" fill="#2C2F34" fill-opacity="1.000000" fill-rule="nonzero"/>
	</g>
</svg>
