<svg width="40.000000" height="40.000000" viewBox="0 0 40 40" fill="none" xmlns="http://www.w3.org/2000/svg" xmlns:xlink="http://www.w3.org/1999/xlink">
	<desc>
			Created with Pixso.
	</desc>
	<defs>
		<clipPath id="clip15_51">
			<rect id="telegram_6422206 1" rx="-0.500000" width="39.000000" height="39.000000" transform="translate(0.500000 0.500000)" fill="white" fill-opacity="0"/>
		</clipPath>
	</defs>
	<rect id="telegram_6422206 1" rx="-0.500000" width="39.000000" height="39.000000" transform="translate(0.500000 0.500000)" fill="#FFFFFF" fill-opacity="0"/>
	<g clip-path="url(#clip15_51)">
		<path id="Vector" d="M20 0C8.95 0 0 8.95 0 20C0 31.04 8.95 40 20 40C31.04 40 40 31.04 40 20C40 8.95 31.04 0 20 0ZM29.27 13.6C28.97 16.76 27.66 24.43 27 27.98C26.72 29.48 26.17 29.98 25.63 30.03C24.47 30.13 23.59 29.26 22.47 28.52C20.71 27.37 19.71 26.65 18 25.52C16.03 24.22 17.31 23.51 18.43 22.34C18.73 22.03 23.84 17.37 23.94 16.95C23.96 16.9 23.97 16.7 23.85 16.6C23.73 16.5 23.56 16.53 23.44 16.56C23.26 16.6 20.45 18.46 15 22.13C14.2 22.68 13.48 22.95 12.83 22.94C12.12 22.92 10.74 22.53 9.72 22.2C8.47 21.79 7.47 21.58 7.56 20.89C7.6 20.53 8.1 20.16 9.05 19.78C14.88 17.24 18.77 15.57 20.71 14.76C26.27 12.45 27.42 12.05 28.17 12.03C29.12 12.02 29.34 12.8 29.27 13.6Z" fill="#2C2F34" fill-opacity="1.000000" fill-rule="evenodd"/>
	</g>
</svg>
