<svg width="40.000000" height="40.000000" viewBox="0 0 40 40" fill="none" xmlns="http://www.w3.org/2000/svg" xmlns:xlink="http://www.w3.org/1999/xlink">
	<desc>
			Created with Pixso.
	</desc>
	<defs>
		<clipPath id="clip15_54">
			<rect id="vk_6422212 1" rx="-0.500000" width="39.000000" height="39.000000" transform="translate(0.500000 0.500000)" fill="white" fill-opacity="0"/>
		</clipPath>
	</defs>
	<rect id="vk_6422212 1" rx="-0.500000" width="39.000000" height="39.000000" transform="translate(0.500000 0.500000)" fill="#FFFFFF" fill-opacity="0"/>
	<g clip-path="url(#clip15_54)">
		<path id="Vector" d="M37.19 2.8C34.38 0 29.86 0 20.83 0L19.16 0C10.13 0 5.61 0 2.8 2.8C0 5.61 0 10.13 0 19.16L0 20.83C0 29.86 0 34.38 2.8 37.19C5.61 40 10.13 40 19.16 40L20.83 40C29.86 40 34.38 40 37.19 37.19C40 34.38 40 29.86 40 20.83L40 19.16C40 10.13 40 5.61 37.19 2.8ZM32.5 28.33L29.58 28.33C28.47 28.33 28.15 27.44 26.17 25.46C24.44 23.8 23.69 23.58 23.26 23.58C22.67 23.58 22.5 23.75 22.5 24.58L22.5 27.19C22.5 27.91 22.27 28.33 20.42 28.33C17.33 28.33 13.93 26.45 11.52 22.99C7.9 17.92 6.91 14.09 6.91 13.32C6.91 12.89 7.08 12.5 7.91 12.5L10.83 12.5C11.58 12.5 11.86 12.82 12.14 13.63C13.56 17.78 15.97 21.41 16.96 21.41C17.33 21.41 17.5 21.24 17.5 20.3L17.5 16.01C17.39 14.03 16.34 13.87 16.34 13.16C16.34 12.84 16.62 12.5 17.08 12.5L21.66 12.5C22.28 12.5 22.5 12.83 22.5 13.57L22.5 19.35C22.5 19.96 22.77 20.18 22.95 20.18C23.32 20.18 23.63 19.96 24.31 19.28C26.41 16.93 27.9 13.32 27.9 13.32C28.08 12.88 28.42 12.49 29.17 12.49L32.08 12.49C32.96 12.49 33.15 12.95 32.96 13.57C32.59 15.27 29.04 20.27 29.04 20.27C28.73 20.77 28.61 21.01 29.04 21.57C29.35 22 30.37 22.87 31.05 23.67C32.3 25.08 33.25 26.27 33.51 27.09C33.75 27.91 33.33 28.33 32.5 28.33Z" fill="#2C2F34" fill-opacity="1.000000" fill-rule="nonzero"/>
	</g>
</svg>
