<svg width="38.400024" height="27.428467" viewBox="0 0 38.4 27.4285" fill="#2C2F34" xmlns="http://www.w3.org/2000/svg" xmlns:xlink="http://www.w3.org/1999/xlink">
	<desc>
			Created with Pixso.
	</desc>
	<defs/>
	<path id="Vector" d="M12.53 18.47C11.63 17.84 10.97 17.09 10.48 16.3L12.99 14.51C13.27 15.37 13.87 16.2 14.79 16.86C16.07 17.77 17.78 18.28 19.6 18.28C21.41 18.28 23.12 17.77 24.41 16.86L33.21 10.57C34.49 9.65 35.2 8.43 35.2 7.13C35.2 5.84 34.49 4.62 33.21 3.7C30.55 1.81 26.24 1.81 23.59 3.7L21.98 4.85C20.95 4.67 19.89 4.56 18.8 4.56C18.46 4.56 18.14 4.58 17.81 4.6L21.33 2.09C25.23 -0.7 31.57 -0.7 35.47 2.09C39.37 4.87 39.37 9.4 35.47 12.19L26.67 18.47C24.78 19.82 22.27 20.57 19.6 20.57C16.93 20.57 14.42 19.82 12.53 18.47L12.53 18.47ZM0 20.28C0 22.19 1.04 23.98 2.92 25.33C4.81 26.68 7.32 27.42 10 27.42C12.67 27.42 15.18 26.68 17.07 25.33L20.59 22.82C20.26 22.83 19.93 22.85 19.6 22.85C18.51 22.85 17.44 22.75 16.41 22.56L14.8 23.71C13.52 24.63 11.81 25.14 10 25.14C8.18 25.14 6.47 24.63 5.19 23.71C3.9 22.8 3.2 21.58 3.2 20.28C3.2 18.98 3.9 17.76 5.19 16.84L13.99 10.56C15.27 9.64 16.98 9.14 18.8 9.14C20.61 9.14 22.32 9.64 23.6 10.56C24.53 11.22 25.12 12.04 25.4 12.91L27.92 11.11C27.43 10.32 26.76 9.58 25.87 8.94C23.98 7.59 21.47 6.85 18.8 6.85C16.12 6.85 13.61 7.59 11.72 8.94L2.92 15.23C1.04 16.58 0 18.37 0 20.28Z"  fill-opacity="1.000000" fill-rule="nonzero"/>
</svg>
