<svg width="39.779480" height="40.000000" viewBox="0 0 39.7795 40" fill="none" xmlns="http://www.w3.org/2000/svg" xmlns:xlink="http://www.w3.org/1999/xlink">
	<desc>
			Created with Pixso.
	</desc>
	<defs/>
	<path id="Shape_1_" d="M19.97 32.03C13.32 32.03 10.29 28.65 10.29 26.16C10.28 25.57 10.53 25.01 10.96 24.6C11.39 24.19 11.97 23.98 12.56 24.01C15.4 24.01 14.66 28.28 19.97 28.28C22.68 28.28 24.27 26.65 24.27 25.11C24.27 24.19 23.75 23.14 21.95 22.71L16.03 21.22C11.27 20.01 10.44 17.36 10.44 14.9C10.44 9.81 15.1 7.96 19.54 7.96C23.63 7.96 28.49 10.22 28.49 13.28C28.49 14.59 27.39 15.3 26.11 15.3C23.68 15.3 24.09 11.89 19.2 11.89C16.77 11.89 15.49 13.03 15.49 14.62C15.49 16.21 17.38 16.75 19.04 17.12L23.42 18.11C28.21 19.18 29.49 22 29.49 24.69C29.49 28.83 26.28 32.03 19.96 32.03M38.31 23.27C38.5 22.18 38.6 21.08 38.6 19.98C38.62 14.43 36.18 9.16 31.94 5.59C27.71 2.02 22.1 0.5 16.64 1.46C14.96 0.5 13.06 -0.01 11.12 0C7.15 0.02 3.48 2.15 1.49 5.59C-0.49 9.04 -0.51 13.28 1.46 16.73C0.36 22.76 2.29 28.95 6.61 33.29C10.93 37.64 17.1 39.59 23.14 38.53C24.82 39.49 26.72 40 28.65 40C32.62 39.97 36.29 37.84 38.27 34.4C40.26 30.96 40.28 26.72 38.31 23.27Z" fill="#2C2F34" fill-opacity="1.000000" fill-rule="nonzero"/>
	<path id="Shape_1_" d="M38.31 23.27C38.5 22.18 38.6 21.08 38.6 19.98C38.62 14.43 36.18 9.16 31.94 5.59C27.71 2.02 22.1 0.5 16.64 1.46C14.96 0.5 13.06 -0.01 11.12 0C7.15 0.02 3.48 2.15 1.49 5.59C-0.49 9.04 -0.51 13.28 1.46 16.73C0.36 22.76 2.29 28.95 6.61 33.29C10.93 37.64 17.1 39.59 23.14 38.53C24.82 39.49 26.72 40 28.65 40C32.62 39.97 36.29 37.84 38.27 34.4C40.26 30.96 40.28 26.72 38.31 23.27ZM36.04 12.43Q37.61 15.83 37.6 19.97L37.6 19.98Q37.6 20.73 37.54 21.48Q37.47 22.29 37.33 23.1L37.27 23.45L37.44 23.76Q38.88 26.29 38.88 28.82Q38.87 31.36 37.41 33.9Q35.94 36.43 33.75 37.71Q31.56 38.98 28.65 39Q27.32 39 26.07 38.67Q24.81 38.33 23.64 37.66L23.32 37.48L22.97 37.54Q18.41 38.35 14.5 37.11Q10.58 35.87 7.32 32.58Q4.06 29.31 2.84 25.39Q1.62 21.47 2.45 16.91L2.51 16.55L2.33 16.24Q0.88 13.69 0.89 11.16Q0.9 8.62 2.36 6.09Q3.82 3.56 6.01 2.29Q8.2 1.01 11.12 1Q12.46 0.99 13.71 1.32Q14.97 1.66 16.14 2.33L16.46 2.51L16.81 2.45Q20.89 1.73 24.51 2.71Q28.13 3.68 31.3 6.35Q34.47 9.02 36.04 12.43ZM19.96 33.03L19.97 33.03Q24.9 33.03 27.73 30.68Q28.97 29.66 29.65 28.35Q30.49 26.74 30.49 24.69Q30.49 22.27 29.38 20.57Q27.74 18.05 23.64 17.13L19.26 16.14Q16.6 15.56 16.5 14.69Q16.49 14.65 16.49 14.62Q16.49 14.12 16.72 13.76Q17.28 12.89 19.2 12.89Q20.4 12.89 21.41 13.33Q22.42 13.79 23.23 14.7Q24.64 16.27 26.07 16.3Q26.09 16.3 26.11 16.3Q27.99 16.3 28.82 15.37Q29.49 14.62 29.49 13.28Q29.49 12.74 29.36 12.24Q28.82 10.13 26.03 8.6Q24.92 7.99 23.74 7.61Q21.74 6.96 19.54 6.96Q15.47 6.96 12.78 8.68Q11.21 9.68 10.38 11.11Q9.44 12.73 9.44 14.9Q9.44 17.2 10.48 18.83Q12.01 21.23 15.78 22.19L21.73 23.69Q22.88 23.96 23.17 24.61Q23.27 24.84 23.27 25.11Q23.27 25.24 23.25 25.36Q23.14 25.98 22.51 26.49Q22.48 26.51 22.46 26.53Q21.5 27.28 19.97 27.28Q18.92 27.28 18.02 26.9Q16.74 26.37 15.78 25.06Q14.39 23.18 12.83 23.02Q12.71 23.01 12.59 23.01Q11.93 22.98 11.37 23.18Q10.77 23.4 10.27 23.87Q9.77 24.35 9.52 24.93Q9.28 25.5 9.29 26.16Q9.29 26.75 9.42 27.29Q9.89 29.27 12.05 30.84Q15.06 33.03 19.96 33.03ZM19.96 32.03L19.97 32.03C26.28 32.03 29.49 28.83 29.49 24.69C29.49 22 28.21 19.18 23.42 18.11L19.04 17.12C17.38 16.75 15.49 16.21 15.49 14.62C15.49 13.03 16.77 11.89 19.2 11.89C24.09 11.89 23.68 15.3 26.11 15.3C27.39 15.3 28.49 14.59 28.49 13.28C28.49 10.22 23.63 7.96 19.54 7.96C15.1 7.96 10.44 9.81 10.44 14.9C10.44 17.36 11.27 20.01 16.03 21.22L21.95 22.71C23.75 23.14 24.27 24.19 24.27 25.11C24.27 26.65 22.68 28.28 19.97 28.28C14.66 28.28 15.4 24.01 12.56 24.01C11.97 23.98 11.39 24.19 10.96 24.6C10.53 25.01 10.28 25.57 10.29 26.16C10.29 28.65 13.32 32.03 19.96 32.03Z" fill="#2C2F34" fill-opacity="1.000000" fill-rule="evenodd"/>
</svg>
